solid
  facet normal -1.000000 -0.000000 -0.000000
    outer loop
      vertex -12.000000 -12.000000 0.000000
      vertex -12.000000 -12.000000 24.000000
      vertex -12.000000 12.000000 0.000000
    endloop
  endfacet
  facet normal -1.000000 0.000000 0.000000
    outer loop
      vertex -12.000000 12.000000 0.000000
      vertex -12.000000 -12.000000 24.000000
      vertex -12.000000 12.000000 24.000000
    endloop
  endfacet
  facet normal 0.000000 -1.000000 0.000000
    outer loop
      vertex -12.000000 -12.000000 24.000000
      vertex -12.000000 -12.000000 0.000000
      vertex 12.000000 -12.000000 0.000000
    endloop
  endfacet
  facet normal 0.000000 -1.000000 0.000000
    outer loop
      vertex 12.000000 -12.000000 24.000000
      vertex -12.000000 -12.000000 24.000000
      vertex 12.000000 -12.000000 0.000000
    endloop
  endfacet
  facet normal -0.000000 -0.000000 -1.000000
    outer loop
      vertex -12.000000 -12.000000 0.000000
      vertex -12.000000 12.000000 0.000000
      vertex 12.000000 -12.000000 0.000000
    endloop
  endfacet
  facet normal 0.000000 0.000000 -1.000000
    outer loop
      vertex 12.000000 -12.000000 0.000000
      vertex -12.000000 12.000000 0.000000
      vertex 12.000000 12.000000 0.000000
    endloop
  endfacet
  facet normal 0.000000 1.000000 0.000000
    outer loop
      vertex -12.000000 12.000000 0.000000
      vertex -12.000000 12.000000 24.000000
      vertex 12.000000 12.000000 0.000000
    endloop
  endfacet
  facet normal 0.000000 1.000000 0.000000
    outer loop
      vertex 12.000000 12.000000 0.000000
      vertex -12.000000 12.000000 24.000000
      vertex 12.000000 12.000000 24.000000
    endloop
  endfacet
  facet normal 0.000000 -0.000000 1.000000
    outer loop
      vertex -12.000000 12.000000 24.000000
      vertex -12.000000 -12.000000 24.000000
      vertex 12.000000 -12.000000 24.000000
    endloop
  endfacet
  facet normal 0.000000 0.000000 1.000000
    outer loop
      vertex 12.000000 12.000000 24.000000
      vertex -12.000000 12.000000 24.000000
      vertex 12.000000 -12.000000 24.000000
    endloop
  endfacet
  facet normal 1.000000 0.000000 -0.000000
    outer loop
      vertex 12.000000 -12.000000 24.000000
      vertex 12.000000 -12.000000 0.000000
      vertex 12.000000 12.000000 0.000000
    endloop
  endfacet
  facet normal 1.000000 0.000000 0.000000
    outer loop
      vertex 12.000000 12.000000 24.000000
      vertex 12.000000 -12.000000 24.000000
      vertex 12.000000 12.000000 0.000000
    endloop
  endfacet
  facet normal -1.000000 -0.000000 -0.000000
    outer loop
      vertex -10.000000 -10.000000 2.000000
      vertex -10.000000 -10.000000 22.000000
      vertex -10.000000 10.000000 2.000000
    endloop
  endfacet
  facet normal -1.000000 0.000000 0.000000
    outer loop
      vertex -10.000000 10.000000 2.000000
      vertex -10.000000 -10.000000 22.000000
      vertex -10.000000 10.000000 22.000000
    endloop
  endfacet
  facet normal 0.000000 -1.000000 0.000000
    outer loop
      vertex -10.000000 -10.000000 22.000000
      vertex -10.000000 -10.000000 2.000000
      vertex 10.000000 -10.000000 2.000000
    endloop
  endfacet
  facet normal 0.000000 -1.000000 0.000000
    outer loop
      vertex 10.000000 -10.000000 22.000000
      vertex -10.000000 -10.000000 22.000000
      vertex 10.000000 -10.000000 2.000000
    endloop
  endfacet
  facet normal -0.000000 -0.000000 -1.000000
    outer loop
      vertex -10.000000 -10.000000 2.000000
      vertex -10.000000 10.000000 2.000000
      vertex 10.000000 -10.000000 2.000000
    endloop
  endfacet
  facet normal 0.000000 0.000000 -1.000000
    outer loop
      vertex 10.000000 -10.000000 2.000000
      vertex -10.000000 10.000000 2.000000
      vertex 10.000000 10.000000 2.000000
    endloop
  endfacet
  facet normal 0.000000 1.000000 0.000000
    outer loop
      vertex -10.000000 10.000000 2.000000
      vertex -10.000000 10.000000 22.000000
      vertex 10.000000 10.000000 2.000000
    endloop
  endfacet
  facet normal 0.000000 1.000000 0.000000
    outer loop
      vertex 10.000000 10.000000 2.000000
      vertex -10.000000 10.000000 22.000000
      vertex 10.000000 10.000000 22.000000
    endloop
  endfacet
  facet normal 0.000000 -0.000000 1.000000
    outer loop
      vertex -10.000000 10.000000 22.000000
      vertex -10.000000 -10.000000 22.000000
      vertex 10.000000 -10.000000 22.000000
    endloop
  endfacet
  facet normal 0.000000 0.000000 1.000000
    outer loop
      vertex 10.000000 10.000000 22.000000
      vertex -10.000000 10.000000 22.000000
      vertex 10.000000 -10.000000 22.000000
    endloop
  endfacet
  facet normal 1.000000 0.000000 -0.000000
    outer loop
      vertex 10.000000 -10.000000 22.000000
      vertex 10.000000 -10.000000 2.000000
      vertex 10.000000 10.000000 2.000000
    endloop
  endfacet
  facet normal 1.000000 0.000000 0.000000
    outer loop
      vertex 10.000000 10.000000 22.000000
      vertex 10.000000 -10.000000 22.000000
      vertex 10.000000 10.000000 2.000000
    endloop
  endfacet
endsolid
